<?xml version="1.0" encoding="UTF-8"?><svg xmlns="http://www.w3.org/2000/svg" viewBox="0 0 532.06 524.2"><defs><style>.d{fill:#303031;}.e{fill:#38a6d3;}</style></defs><g id="a"/><g id="b"><g id="c"><g><g><path class="e" d="M136.88,410.42c-24.63,0-43.31,18.36-43.31,43.15s18.2,42.85,43.31,42.85,43.47-18.36,43.47-43-18.2-43-43.47-43Zm0,70.79c-15.22,0-26.05-11.47-26.05-27.63s10.66-27.94,26.05-27.94,26.37,11.77,26.37,27.78-11.15,27.78-26.37,27.78Z"/><path class="e" d="M69.64,402.89c-.44,4.86-1.95,9.25-4.3,12.95-6.34-3.47-13.8-5.42-22.03-5.42-6.23,0-12.08,1.17-17.33,3.34-5.38,2.19-10.13,5.41-14.04,9.44-7.46,7.66-11.94,18.25-11.94,30.37,0,15.19,6.82,27.84,17.9,35.35,6.99,4.78,15.69,7.49,25.42,7.49,15.22,0,26.35,11.77,26.35,27.77v.02h17.11v-.02c0-15.1-6.84-27.85-17.96-35.42,11.06-7.6,17.96-20.3,17.96-35.35,0-8.7-2.27-16.62-6.34-23.21-.75-1.23-1.57-2.42-2.44-3.56,5.07-6.5,8.21-14.64,8.77-23.75h-17.14Zm-26.32,78.31c-15.23,0-26.06-11.47-26.06-27.63,0-7.19,2.16-13.59,5.97-18.42,3.84-4.95,9.4-8.29,16.06-9.23,1.31-.2,2.65-.29,4.04-.29,2.62,0,5.12,.35,7.46,1.02,.73,.2,1.46,.44,2.16,.72,5.13,1.93,9.37,5.45,12.31,10.08,.43,.67,.82,1.37,1.19,2.09,2.07,4.02,3.23,8.73,3.23,13.88,0,16.01-11.13,27.78-26.35,27.78Z"/><circle class="e" cx="324.64" cy="392.21" r="10.67" transform="translate(-182.25 344.43) rotate(-45)"/><rect class="e" x="316.09" y="412.46" width="17.11" height="81.92"/><path class="e" d="M359.13,433.33c0-5.65,4.71-8.94,10.99-8.94,9.1,0,13.5,5.34,15.85,9.1l11.77-7.85c-3.14-6.28-11.3-15.22-26.68-15.22s-28.09,8.79-28.09,23.23c0,28.4,39.86,22.76,39.86,38.45,0,6.59-5.34,10.2-12.55,10.2-10.2,0-15.85-5.18-19.62-10.67l-10.67,8.48c4.08,7.38,12.87,16.32,29.5,16.32s29.66-9.89,29.66-25.11c0-28.88-40.02-22.29-40.02-37.98Z"/><path class="e" d="M443.89,410.42c-22.44,0-39.86,17.89-39.86,43.31s16.95,42.69,42.53,42.69c19.46,0,30.29-11.14,34.21-17.89l-11.3-8.47c-3.14,4.55-10.2,11.46-22.6,11.46-14.6,0-25.11-9.42-25.43-24.01h61.68c.16-1.41,.16-2.83,.16-4.24,0-25.74-14.6-42.84-39.39-42.84Zm-21.81,35.31c1.1-12.87,10.2-21.03,21.97-21.03s21.19,7.53,21.81,21.03h-43.79Z"/><path class="e" d="M508.68,425.32v-12.87h-16.79v81.92h17.11v-35.31c0-17.73,5.18-31.39,23.07-31.39v-17.26c-11.61,0-20.25,6.75-23.38,14.91Z"/><path class="e" d="M287.55,434.25v28.97c0,8.94-7.24,16.18-16.16,16.18s-16.18-7.24-16.18-16.18v-50.77h-17.01v50.77c0,8.94-7.24,16.18-16.16,16.18s-16.18-7.24-16.18-16.18v-50.77h-17.01v50.77c0,12.46,6.87,23.31,17.01,28.99,4.78,2.68,10.3,4.2,16.18,4.2s11.38-1.52,16.16-4.2c3.2-1.79,6.07-4.1,8.51-6.81,2.43,2.71,5.31,5.01,8.5,6.81,4.78,2.68,10.3,4.2,16.18,4.2s11.38-1.52,16.16-4.2c10.14-5.67,17.01-16.53,17.01-28.99v-50.77h-17.01v21.8Z"/></g><g><polygon class="d" points="389.6 295.18 204.25 350.1 255.74 235.69 389.6 295.18"/><polygon class="e" points="389.6 54.92 389.6 295.18 142.47 185.34 245.44 0 389.6 54.92"/></g></g></g></g></svg>